# xmcd CD database file
#
# Track frame offsets:
#	150
#	7505
#	31570
#	46575
#	67193
#	72583
#	83245
#	110413
#	128393
#	144003
#	159610
#	179853
#	201085
#	225755
#
# Disc length: 3122 seconds
#
# Revision: 0
# Processed by: cddbd v1.5.1PL0 Copyright (c) Steve Scherf et al.
# Submitted via: CDex 1.51
#
DISCID=a50c300e
DTITLE=Lundberg-Milder-Sjögren - Ord om golvet
DYEAR=2000
DGENRE=Jazz
TTITLE0=Skeppets ögon
TTITLE1=Av ingen
TTITLE2=Vi sjunger om hamn
TTITLE3=Jag vet ingen annan plats
TTITLE4=Alla duvor
TTITLE5=En strand
TTITLE6=Din mening
TTITLE7=Stort sällskap
TTITLE8=Utanför alla
TTITLE9=Ett berg
TTITLE10=Därför läser du detta
TTITLE11=En fånges hemlighet
TTITLE12=Hon ingav dig drömmen
TTITLE13=Barnen leker tyst
EXTD=YEAR: 2000
EXTT0=
EXTT1=
EXTT2=
EXTT3=
EXTT4=
EXTT5=
EXTT6=
EXTT7=
EXTT8=
EXTT9=
EXTT10=
EXTT11=
EXTT12=
EXTT13=
PLAYORDER=
